<svg xmlns="http://www.w3.org/2000/svg" width="14" height="14" viewBox="0 0 14 14">
    <path fill="#141124" d="M.3 10.919C-.169 10.095.095 9.33.972 9.25c.008 0 .016 0 .024-.002.32.057.65.087.986.087 3.09 0 5.595-2.505 5.595-5.595 0-.893-.21-1.737-.582-2.486l-.005-.017C6.746.492 7.3-.137 8.15.026 10.987.94 13.038 3.6 13.038 6.74c0 3.896-3.158 7.054-7.054 7.054-2.332 0-4.4-1.131-5.684-2.875zm8.495-9.016c.158.586.242 1.202.242 1.837 0 3.848-3.081 6.977-6.91 7.053 1.003.955 2.36 1.542 3.856 1.542 3.09 0 5.595-2.505 5.595-5.595 0-2.064-1.119-3.868-2.783-4.837z"/>
</svg>
