<svg xmlns="http://www.w3.org/2000/svg" width="27" height="27" viewBox="0 0 27 27">
    <path fill="#141124" d="M13.285 19.494c3.343 0 6.054-2.71 6.054-6.054 0-3.343-2.71-6.054-6.054-6.054-3.344 0-6.054 2.71-6.054 6.054 0 3.344 2.71 6.054 6.054 6.054zm0-1.46c-2.538 0-4.595-2.056-4.595-4.594 0-2.537 2.057-4.594 4.595-4.594 2.537 0 4.594 2.057 4.594 4.594 0 2.538-2.057 4.595-4.594 4.595zm7.294 1.566c-.285-.285-.747-.285-1.032 0-.285.285-.285.747 0 1.032l2.203 2.756c.285.285.747.285 1.032 0 .285-.285.285-.747 0-1.032L20.579 19.6zM13.9.654c-.042-.401-.4-.692-.802-.65-.4.042-.691.401-.65.802l-.021 3.528c.042.401.4.692.802.65.4-.042.691-.401.649-.802l.022-3.528zm11.894 13.47c.401-.043.692-.402.65-.803-.042-.4-.401-.692-.802-.65l-3.529-.022c-.4.042-.691.402-.649.802.042.401.401.692.802.65l3.528.022zm-21.39 0c.401-.043.692-.402.65-.803-.042-.4-.401-.692-.802-.65L.725 12.65c-.401.042-.692.402-.65.802.042.401.401.692.802.65l3.528.022zm9.563 8.32c-.042-.4-.401-.692-.802-.65-.401.043-.692.402-.65.803l-.022 3.528c.042.4.401.691.802.65.4-.043.692-.402.65-.803l.022-3.528zm-8.39-19.23c-.284-.285-.746-.285-1.031 0-.285.285-.285.747 0 1.032L6.75 7.002c.285.285.747.285 1.032 0 .285-.285.285-.747 0-1.032L5.579 3.214zm16.433 1.43c.202-.348.082-.795-.267-.996-.35-.202-.795-.082-.997.267l-2.092 2.841c-.201.35-.082.796.267.997.35.202.796.082.997-.267l2.092-2.841zM7.842 20.232c.202-.349.082-.795-.267-.996-.349-.202-.795-.082-.997.267l-2.092 2.841c-.201.35-.081.795.268.997.349.201.795.082.996-.267l2.092-2.842z"/>
</svg>
